<?xml version="1.0" encoding="UTF-8" standalone="no"?>
<svg width="1951px" height="1338px" viewBox="0 0 1951 1338" version="1.1" xmlns="http://www.w3.org/2000/svg" xmlns:xlink="http://www.w3.org/1999/xlink">
    <!-- Generator: Sketch 42 (36781) - http://www.bohemiancoding.com/sketch -->
    <title>taipei</title>
    <desc>Created with Sketch.</desc>
    <defs></defs>
    <g id="Page-1" stroke="none" stroke-width="1" fill="none" fill-rule="evenodd">
        <g id="taipei">
            <polygon id="Shape" fill="#005CAF" fill-rule="nonzero" opacity="0.55" points="721.6 422.1 976 572.4 976 0"></polygon>
            <polygon id="Shape" fill="#005CAF" fill-rule="nonzero" opacity="0.9" points="976 0 976 572.4 1230.3 422.1"></polygon>
            <polygon id="Shape" fill="#005CAF" fill-rule="nonzero" opacity="0.7" points="976 306.4 721.6 422.1 976 572.4 1230.3 422.1"></polygon>
            <polygon id="Shape" fill="#86C166" fill-rule="nonzero" opacity="0.55" points="721.6 470.3 976 828.7 976 620.6"></polygon>
            <polygon id="Shape" fill="#86C166" fill-rule="nonzero" opacity="0.9" points="976 620.6 976 828.7 1230.5 470.3"></polygon>
            <g id="Group-2-Copy" transform="translate(921.000000, 121.000000)" fill="#FFFFFF">
                <path d="M0.351307878,362.518163 C0.0841825675,360.882966 1.21875562,359.557377 2.86691781,359.557377 L106.868352,359.557377 C108.52481,359.557377 109.652506,360.874278 109.383962,362.518163 L99.097951,425.483577 L10.6373184,425.483577 L0.351307878,362.518163 Z" id="Rectangle"></path>
                <path d="M0.351307878,297.600131 C0.0841825675,295.964934 1.21875562,294.639344 2.86691781,294.639344 L106.868352,294.639344 C108.52481,294.639344 109.652506,295.956245 109.383962,297.600131 L99.097951,360.565544 L10.6373184,360.565544 L0.351307878,297.600131 Z" id="Rectangle-Copy"></path>
                <path d="M0.351307878,232.682098 C0.0841825675,231.046901 1.21875562,229.721311 2.86691781,229.721311 L106.868352,229.721311 C108.52481,229.721311 109.652506,231.038212 109.383962,232.682098 L99.097951,295.647511 L10.6373184,295.647511 L0.351307878,232.682098 Z" id="Rectangle-Copy-2"></path>
                <path d="M0.351307878,167.862426 C0.0841825675,166.227229 1.21875562,164.901639 2.86691781,164.901639 L106.868352,164.901639 C108.52481,164.901639 109.652506,166.21854 109.383962,167.862426 L99.097951,230.827839 L10.6373184,230.827839 L0.351307878,167.862426 Z" id="Rectangle-Copy-3"></path>
                <path d="M0.351307878,102.944393 C0.0841825675,101.309196 1.21875562,99.9836066 2.86691781,99.9836066 L106.868352,99.9836066 C108.52481,99.9836066 109.652506,101.300507 109.383962,102.944393 L99.097951,165.909806 L10.6373184,165.909806 L0.351307878,102.944393 Z" id="Rectangle-Copy-4"></path>
                <path d="M33.3764613,64.0025938 C33.3169038,63.4579304 33.7205133,63.0163934 34.2639929,63.0163934 L75.0908424,63.0163934 C75.6405701,63.0163934 76.0376833,63.4601998 75.978374,64.0025938 L71.8941043,101.353912 L37.460731,101.353912 L33.3764613,64.0025938 Z" id="Rectangle-Copy-5"></path>
                <path d="M44.1943186,43.2724509 C44.140582,42.7236111 44.546044,42.2786885 45.105096,42.2786885 L64.5873152,42.2786885 C65.1440603,42.2786885 65.551429,42.727698 65.4980926,43.2724509 L63.4905671,63.7763624 L46.2018441,63.7763624 L44.1943186,43.2724509 Z" id="Rectangle-Copy-6"></path>
                <path d="M52.295082,2.87315243 C52.295082,1.28635416 53.5816564,0 55.1615315,0 L55.1615315,0 C56.7446278,0 58.027981,1.28350333 58.027981,2.87315243 L58.027981,43.2786885 L52.295082,43.2786885 L52.295082,2.87315243 Z" id="Rectangle-2"></path>
                <polygon id="Path-2" points="7.5 424.5 54.75 455.5 104 424.5"></polygon>
            </g>
            <text id="ＴＡＩＰＥＩ-Copy" font-family="PingFangTC-Light, PingFang TC" font-size="288" font-weight="300" line-spacing="227" letter-spacing="0.949999988" fill="#3D3E3F">
                <tspan x="87.914" y="1358.824">ＴＡＩＰＥＩ</tspan>
            </text>
        </g>
    </g>
</svg>